<?xml version="1.0" encoding="UTF-8"?>
<svg xmlns="http://www.w3.org/2000/svg" xmlns:xlink="http://www.w3.org/1999/xlink" width="200pt" height="200pt" viewBox="0 0 200 200" version="1.1">
<g id="surface1">
<path style=" stroke:none;fill-rule:nonzero;fill:rgb(100%,100%,100%);fill-opacity:1;" d="M 83.199219 36.699219 C 70.5 58.300781 27.300781 132.398438 24.199219 138.101562 L 21 143.601562 L 27.601562 155.800781 L 34.199219 168 L 103.699219 167.800781 L 173.300781 167.5 L 179.101562 154.699219 L 185 141.898438 L 150.199219 83.5 L 115.5 25 L 90.101562 25 Z M 145.101562 84.199219 C 162.898438 114 177.699219 138.699219 177.800781 139.199219 C 178 139.601562 154.699219 140 126 140 L 73.800781 140 L 78.199219 131.800781 L 82.601562 123.5 L 116.300781 123.199219 C 134.800781 123.101562 150 122.601562 150 122.101562 C 150 121.601562 138.300781 101.5 123.898438 77.398438 C 109.601562 53.199219 97.398438 32.699219 96.898438 31.699219 C 96 30.101562 96.601562 30 104.300781 30 L 112.699219 30 Z M 116.898438 75.199219 C 130.199219 97.5 141 116.101562 141 116.398438 C 141 116.699219 137.5 117 133.101562 117 L 125.199219 117 L 108.5 90 C 99.398438 75.101562 91.699219 63 91.5 63 C 91.300781 63 78.699219 84.898438 63.5 111.601562 L 35.800781 160.199219 L 31.398438 152.5 C 29 148.199219 27 144.300781 27 143.800781 C 27 141.898438 91.300781 32.898438 92 33.699219 C 92.5 34.101562 103.601562 52.800781 116.898438 75.199219 Z M 95.5 78.398438 L 98.398438 83.699219 L 82.199219 113.699219 C 73.300781 130.199219 66 144 66 144.300781 C 66 144.699219 91.199219 145 122.101562 145 C 166.601562 145 178.101562 145.300781 177.699219 146.300781 C 177.398438 146.898438 175.699219 150.800781 173.898438 154.699219 L 170.699219 162 L 105.898438 162 C 70.199219 162 41 161.800781 41 161.5 C 41 160.398438 91.300781 73 91.898438 73 C 92.300781 73 93.898438 75.398438 95.5 78.398438 Z M 111.398438 103.898438 C 115.601562 110.699219 118.898438 116.5 118.699219 116.699219 C 118.5 116.898438 111.101562 116.898438 102.300781 116.800781 L 86.398438 116.5 L 93.800781 102.699219 C 99.898438 91.398438 101.5 89.101562 102.5 90.199219 C 103.199219 90.898438 107.199219 97.101562 111.398438 103.898438 Z M 111.398438 103.898438 "/>
</g>
</svg>
