<?xml version="1.0" standalone="no"?>
<!DOCTYPE svg PUBLIC "-//W3C//DTD SVG 20010904//EN"
 "http://www.w3.org/TR/2001/REC-SVG-20010904/DTD/svg10.dtd">
<svg version="1.0" xmlns="http://www.w3.org/2000/svg"
 width="200.000000pt" height="200.000000pt" viewBox="0 0 200.000000 200.000000"
 preserveAspectRatio="xMidYMid meet">
<metadata>
Created by potrace 1.14, written by Peter Selinger 2001-2017
</metadata>
<g transform="translate(0.000000,200.000000) scale(0.100000,-0.100000)"
fill="#FFFFFF" stroke="none">
<path d="M832 1633 c-127 -216 -559 -957 -590 -1014 l-32 -55 66 -122 66 -122
695 2 696 3 58 128 59 128 -348 584 -347 585 -127 0 -127 0 -69 -117z m619
-475 c178 -298 326 -545 327 -550 2 -4 -231 -8 -518 -8 l-522 0 44 82 44 83
337 3 c185 1 337 6 337 11 0 5 -117 206 -261 447 -143 242 -265 447 -270 457
-9 16 -3 17 74 17 l84 0 324 -542z m-282 90 c133 -223 241 -409 241 -412 0 -3
-35 -6 -79 -6 l-79 0 -167 270 c-91 149 -168 270 -170 270 -2 0 -128 -219
-280 -486 l-277 -486 -44 77 c-24 43 -44 82 -44 87 0 19 643 1109 650 1101 5
-4 116 -191 249 -415z m-214 -32 l29 -53 -162 -300 c-89 -165 -162 -303 -162
-306 0 -4 252 -7 561 -7 445 0 560 -3 556 -13 -3 -6 -20 -45 -38 -84 l-32 -73
-648 0 c-357 0 -649 2 -649 5 0 11 503 885 509 885 4 0 20 -24 36 -54z m159
-255 c42 -68 75 -126 73 -128 -2 -2 -76 -2 -164 -1 l-159 3 74 138 c61 113 77
136 87 125 7 -7 47 -69 89 -137z"/>
</g>
</svg>
